<svg width="705" height="112" viewBox="0 0 705 112" fill="none" xmlns="http://www.w3.org/2000/svg">
<rect width="705" height="112" rx="15" fill="#A1C8DE" fill-opacity="0.26"/>
<path d="M51.1591 22H49.0455C48.9205 21.392 48.7017 20.858 48.3892 20.3977C48.0824 19.9375 47.7074 19.5511 47.2642 19.2386C46.8267 18.9205 46.3409 18.6818 45.8068 18.5227C45.2727 18.3636 44.7159 18.2841 44.1364 18.2841C43.0795 18.2841 42.1222 18.5511 41.2642 19.0852C40.4119 19.6193 39.733 20.4062 39.2273 21.446C38.7273 22.4858 38.4773 23.7614 38.4773 25.2727C38.4773 26.7841 38.7273 28.0597 39.2273 29.0994C39.733 30.1392 40.4119 30.9261 41.2642 31.4602C42.1222 31.9943 43.0795 32.2614 44.1364 32.2614C44.7159 32.2614 45.2727 32.1818 45.8068 32.0227C46.3409 31.8636 46.8267 31.6278 47.2642 31.3153C47.7074 30.9972 48.0824 30.608 48.3892 30.1477C48.7017 29.6818 48.9205 29.1477 49.0455 28.5455H51.1591C51 29.4375 50.7102 30.2358 50.2898 30.9403C49.8693 31.6449 49.3466 32.2443 48.7216 32.7386C48.0966 33.2273 47.3949 33.5994 46.6165 33.8551C45.8438 34.1108 45.017 34.2386 44.1364 34.2386C42.6477 34.2386 41.3239 33.875 40.1648 33.1477C39.0057 32.4205 38.0938 31.3864 37.429 30.0455C36.7642 28.7045 36.4318 27.1136 36.4318 25.2727C36.4318 23.4318 36.7642 21.8409 37.429 20.5C38.0938 19.1591 39.0057 18.125 40.1648 17.3977C41.3239 16.6705 42.6477 16.3068 44.1364 16.3068C45.017 16.3068 45.8438 16.4347 46.6165 16.6903C47.3949 16.946 48.0966 17.321 48.7216 17.8153C49.3466 18.304 49.8693 18.9006 50.2898 19.6051C50.7102 20.304 51 21.1023 51.1591 22ZM53.1428 34V32.125H53.62C54.0121 32.125 54.3388 32.0483 54.6001 31.8949C54.8615 31.7358 55.0717 31.4602 55.2308 31.0682C55.3956 30.6705 55.5206 30.1193 55.6058 29.4148C55.6967 28.7045 55.7621 27.8011 55.8018 26.7045L56.0405 20.9091H64.7678V34H62.7564V22.7841H57.9496L57.745 27.4545C57.6996 28.5284 57.603 29.4744 57.4553 30.2926C57.3132 31.1051 57.0945 31.7869 56.799 32.3381C56.5092 32.8892 56.1229 33.304 55.6399 33.5824C55.157 33.8608 54.5518 34 53.8246 34H53.1428ZM73.7763 34.2727C72.5945 34.2727 71.5575 33.9915 70.6655 33.429C69.7791 32.8665 69.0859 32.0795 68.5859 31.0682C68.0916 30.0568 67.8445 28.875 67.8445 27.5227C67.8445 26.1591 68.0916 24.9687 68.5859 23.9517C69.0859 22.9347 69.7791 22.1449 70.6655 21.5824C71.5575 21.0199 72.5945 20.7386 73.7763 20.7386C74.9581 20.7386 75.9922 21.0199 76.8786 21.5824C77.7706 22.1449 78.4638 22.9347 78.9581 23.9517C79.4581 24.9687 79.7081 26.1591 79.7081 27.5227C79.7081 28.875 79.4581 30.0568 78.9581 31.0682C78.4638 32.0795 77.7706 32.8665 76.8786 33.429C75.9922 33.9915 74.9581 34.2727 73.7763 34.2727ZM73.7763 32.4659C74.674 32.4659 75.4126 32.2358 75.9922 31.7756C76.5717 31.3153 77.0007 30.7102 77.2791 29.9602C77.5575 29.2102 77.6967 28.3977 77.6967 27.5227C77.6967 26.6477 77.5575 25.8324 77.2791 25.0767C77.0007 24.321 76.5717 23.7102 75.9922 23.2443C75.4126 22.7784 74.674 22.5455 73.7763 22.5455C72.8786 22.5455 72.1399 22.7784 71.5604 23.2443C70.9808 23.7102 70.5518 24.321 70.2734 25.0767C69.995 25.8324 69.8558 26.6477 69.8558 27.5227C69.8558 28.3977 69.995 29.2102 70.2734 29.9602C70.5518 30.7102 70.9808 31.3153 71.5604 31.7756C72.1399 32.2358 72.8786 32.4659 73.7763 32.4659ZM81.4212 34L86.7393 27.3523L81.4893 20.9091H83.8757L88.2393 26.5H89.3303V20.9091H91.3416V26.5H92.3984L96.7621 20.9091H99.1484L93.9325 27.3523L99.2166 34H96.7962L92.3643 28.375H91.3416V34H89.3303V28.375H88.3075L83.8416 34H81.4212ZM110.852 26.5341V28.4091H103.625V26.5341H110.852ZM104.102 20.9091V34H102.091V20.9091H104.102ZM112.386 20.9091V34H110.375V20.9091H112.386ZM121.378 34.2727C120.196 34.2727 119.159 33.9915 118.267 33.429C117.381 32.8665 116.688 32.0795 116.188 31.0682C115.693 30.0568 115.446 28.875 115.446 27.5227C115.446 26.1591 115.693 24.9687 116.188 23.9517C116.688 22.9347 117.381 22.1449 118.267 21.5824C119.159 21.0199 120.196 20.7386 121.378 20.7386C122.56 20.7386 123.594 21.0199 124.48 21.5824C125.372 22.1449 126.065 22.9347 126.56 23.9517C127.06 24.9687 127.31 26.1591 127.31 27.5227C127.31 28.875 127.06 30.0568 126.56 31.0682C126.065 32.0795 125.372 32.8665 124.48 33.429C123.594 33.9915 122.56 34.2727 121.378 34.2727ZM121.378 32.4659C122.276 32.4659 123.014 32.2358 123.594 31.7756C124.173 31.3153 124.602 30.7102 124.881 29.9602C125.159 29.2102 125.298 28.3977 125.298 27.5227C125.298 26.6477 125.159 25.8324 124.881 25.0767C124.602 24.321 124.173 23.7102 123.594 23.2443C123.014 22.7784 122.276 22.5455 121.378 22.5455C120.48 22.5455 119.741 22.7784 119.162 23.2443C118.582 23.7102 118.153 24.321 117.875 25.0767C117.597 25.8324 117.457 26.6477 117.457 27.5227C117.457 28.3977 117.597 29.2102 117.875 29.9602C118.153 30.7102 118.582 31.3153 119.162 31.7756C119.741 32.2358 120.48 32.4659 121.378 32.4659ZM135.698 34.2727C134.471 34.2727 133.414 33.983 132.528 33.4034C131.641 32.8239 130.96 32.0256 130.482 31.0085C130.005 29.9915 129.766 28.8295 129.766 27.5227C129.766 26.1932 130.011 25.0199 130.499 24.0028C130.994 22.9801 131.681 22.1818 132.562 21.608C133.448 21.0284 134.482 20.7386 135.664 20.7386C136.585 20.7386 137.414 20.9091 138.153 21.25C138.891 21.5909 139.496 22.0682 139.968 22.6818C140.44 23.2955 140.732 24.0114 140.846 24.8295H138.835C138.681 24.233 138.34 23.7045 137.812 23.2443C137.289 22.7784 136.585 22.5455 135.698 22.5455C134.914 22.5455 134.227 22.75 133.636 23.1591C133.05 23.5625 132.593 24.1335 132.263 24.8722C131.94 25.6051 131.778 26.4659 131.778 27.4545C131.778 28.4659 131.937 29.3466 132.255 30.0966C132.579 30.8466 133.033 31.429 133.619 31.8438C134.21 32.2585 134.903 32.4659 135.698 32.4659C136.221 32.4659 136.695 32.375 137.121 32.1932C137.548 32.0114 137.908 31.75 138.204 31.4091C138.499 31.0682 138.71 30.6591 138.835 30.1818H140.846C140.732 30.9545 140.451 31.6506 140.002 32.2699C139.559 32.8835 138.971 33.3722 138.238 33.7358C137.511 34.0938 136.664 34.2727 135.698 34.2727ZM142.755 22.7841V20.9091H153.391V22.7841H149.096V34H147.085V22.7841H142.755ZM158.064 25.6477H161.814C163.348 25.6477 164.521 26.0369 165.334 26.8153C166.146 27.5937 166.553 28.5795 166.553 29.7727C166.553 30.5568 166.371 31.2699 166.007 31.9119C165.643 32.5483 165.109 33.0568 164.405 33.4375C163.7 33.8125 162.837 34 161.814 34H156.325V20.9091H158.337V32.125H161.814C162.609 32.125 163.263 31.9148 163.774 31.4943C164.286 31.0739 164.541 30.5341 164.541 29.875C164.541 29.1818 164.286 28.6165 163.774 28.179C163.263 27.7415 162.609 27.5227 161.814 27.5227H158.064V25.6477ZM183.523 31.2727L188.092 20.9091H190.001L184.342 34H182.705L177.148 20.9091H179.023L183.523 31.2727ZM178.376 20.9091V34H176.364V20.9091H178.376ZM188.671 34V20.9091H190.683V34H188.671ZM198.217 34.3068C197.387 34.3068 196.634 34.1506 195.958 33.8381C195.282 33.5199 194.745 33.0625 194.347 32.4659C193.95 31.8636 193.751 31.1364 193.751 30.2841C193.751 29.5341 193.898 28.9261 194.194 28.4602C194.489 27.9886 194.884 27.6193 195.379 27.3523C195.873 27.0852 196.418 26.8864 197.015 26.7557C197.617 26.6193 198.222 26.5114 198.83 26.4318C199.626 26.3295 200.271 26.2528 200.765 26.2017C201.265 26.1449 201.629 26.0511 201.856 25.9205C202.089 25.7898 202.205 25.5625 202.205 25.2386V25.1705C202.205 24.3295 201.975 23.6761 201.515 23.2102C201.06 22.7443 200.37 22.5114 199.444 22.5114C198.484 22.5114 197.731 22.7216 197.185 23.142C196.64 23.5625 196.256 24.0114 196.035 24.4886L194.126 23.8068C194.467 23.0114 194.921 22.392 195.489 21.9489C196.063 21.5 196.688 21.1875 197.364 21.0114C198.046 20.8295 198.717 20.7386 199.376 20.7386C199.796 20.7386 200.279 20.7898 200.825 20.892C201.376 20.9886 201.907 21.1903 202.418 21.4972C202.935 21.804 203.364 22.267 203.705 22.8864C204.046 23.5057 204.217 24.3352 204.217 25.375V34H202.205V32.2273H202.103C201.967 32.5114 201.739 32.8153 201.421 33.1392C201.103 33.4631 200.68 33.7386 200.151 33.9659C199.623 34.1932 198.978 34.3068 198.217 34.3068ZM198.523 32.5C199.319 32.5 199.989 32.3438 200.535 32.0312C201.086 31.7188 201.501 31.3153 201.779 30.821C202.063 30.3267 202.205 29.8068 202.205 29.2614V27.4205C202.12 27.5227 201.933 27.6165 201.643 27.7017C201.359 27.7812 201.029 27.8523 200.654 27.9148C200.285 27.9716 199.924 28.0227 199.572 28.0682C199.225 28.108 198.944 28.142 198.728 28.1705C198.205 28.2386 197.717 28.3494 197.262 28.5028C196.813 28.6506 196.45 28.875 196.171 29.1761C195.898 29.4716 195.762 29.875 195.762 30.3864C195.762 31.0852 196.021 31.6136 196.538 31.9716C197.06 32.3239 197.722 32.5 198.523 32.5ZM207.888 38.9091V20.9091H209.831V22.9886H210.07C210.217 22.7614 210.422 22.4716 210.683 22.1193C210.95 21.7614 211.331 21.4432 211.825 21.1648C212.325 20.8807 213.001 20.7386 213.854 20.7386C214.956 20.7386 215.928 21.0142 216.768 21.5653C217.609 22.1165 218.266 22.8977 218.737 23.9091C219.209 24.9205 219.445 26.1136 219.445 27.4886C219.445 28.875 219.209 30.0767 218.737 31.0938C218.266 32.1051 217.612 32.8892 216.777 33.446C215.942 33.9972 214.979 34.2727 213.888 34.2727C213.047 34.2727 212.374 34.1335 211.868 33.8551C211.362 33.571 210.973 33.25 210.7 32.892C210.428 32.5284 210.217 32.2273 210.07 31.9886H209.899V38.9091H207.888ZM209.865 27.4545C209.865 28.4432 210.01 29.3153 210.3 30.071C210.589 30.821 211.013 31.4091 211.57 31.8352C212.126 32.2557 212.808 32.4659 213.615 32.4659C214.456 32.4659 215.158 32.2443 215.72 31.8011C216.288 31.3523 216.714 30.75 216.999 29.9943C217.288 29.233 217.433 28.3864 217.433 27.4545C217.433 26.5341 217.291 25.7045 217.007 24.9659C216.729 24.2216 216.305 23.6335 215.737 23.2017C215.175 22.7642 214.467 22.5455 213.615 22.5455C212.797 22.5455 212.109 22.7528 211.553 23.1676C210.996 23.5767 210.575 24.1506 210.291 24.8892C210.007 25.6222 209.865 26.4773 209.865 27.4545ZM222.513 20.9091H224.524V32.125H229.467V20.9091H231.479V32.125H236.422V20.9091H238.433V34H222.513V20.9091ZM242.107 38.9091V20.9091H244.05V22.9886H244.288C244.436 22.7614 244.641 22.4716 244.902 22.1193C245.169 21.7614 245.55 21.4432 246.044 21.1648C246.544 20.8807 247.22 20.7386 248.072 20.7386C249.175 20.7386 250.146 21.0142 250.987 21.5653C251.828 22.1165 252.484 22.8977 252.956 23.9091C253.428 24.9205 253.663 26.1136 253.663 27.4886C253.663 28.875 253.428 30.0767 252.956 31.0938C252.484 32.1051 251.831 32.8892 250.996 33.446C250.161 33.9972 249.197 34.2727 248.107 34.2727C247.266 34.2727 246.592 34.1335 246.087 33.8551C245.581 33.571 245.192 33.25 244.919 32.892C244.646 32.5284 244.436 32.2273 244.288 31.9886H244.118V38.9091H242.107ZM244.084 27.4545C244.084 28.4432 244.229 29.3153 244.518 30.071C244.808 30.821 245.232 31.4091 245.788 31.8352C246.345 32.2557 247.027 32.4659 247.834 32.4659C248.675 32.4659 249.376 32.2443 249.939 31.8011C250.507 31.3523 250.933 30.75 251.217 29.9943C251.507 29.233 251.652 28.3864 251.652 27.4545C251.652 26.5341 251.51 25.7045 251.226 24.9659C250.947 24.2216 250.524 23.6335 249.956 23.2017C249.393 22.7642 248.686 22.5455 247.834 22.5455C247.016 22.5455 246.328 22.7528 245.771 23.1676C245.214 23.5767 244.794 24.1506 244.51 24.8892C244.226 25.6222 244.084 26.4773 244.084 27.4545ZM257.558 38.9091C257.217 38.9091 256.913 38.8807 256.646 38.8239C256.379 38.7727 256.195 38.7216 256.092 38.6705L256.604 36.8977C257.092 37.0227 257.524 37.0682 257.899 37.0341C258.274 37 258.607 36.8324 258.896 36.5312C259.192 36.2358 259.462 35.7557 259.706 35.0909L260.081 34.0682L255.24 20.9091H257.422L261.036 31.3409H261.172L264.786 20.9091H266.967L261.411 35.9091C261.161 36.5852 260.851 37.1449 260.482 37.5881C260.112 38.0369 259.683 38.3693 259.195 38.5852C258.712 38.8011 258.166 38.9091 257.558 38.9091ZM268.872 22.7841V20.9091H279.509V22.7841H275.213V34H273.202V22.7841H268.872ZM285.615 34.3068C284.786 34.3068 284.033 34.1506 283.357 33.8381C282.68 33.5199 282.143 33.0625 281.746 32.4659C281.348 31.8636 281.149 31.1364 281.149 30.2841C281.149 29.5341 281.297 28.9261 281.592 28.4602C281.888 27.9886 282.283 27.6193 282.777 27.3523C283.271 27.0852 283.817 26.8864 284.413 26.7557C285.016 26.6193 285.621 26.5114 286.229 26.4318C287.024 26.3295 287.669 26.2528 288.163 26.2017C288.663 26.1449 289.027 26.0511 289.254 25.9205C289.487 25.7898 289.604 25.5625 289.604 25.2386V25.1705C289.604 24.3295 289.374 23.6761 288.913 23.2102C288.459 22.7443 287.768 22.5114 286.842 22.5114C285.882 22.5114 285.129 22.7216 284.584 23.142C284.038 23.5625 283.655 24.0114 283.433 24.4886L281.524 23.8068C281.865 23.0114 282.32 22.392 282.888 21.9489C283.462 21.5 284.087 21.1875 284.763 21.0114C285.445 20.8295 286.115 20.7386 286.774 20.7386C287.195 20.7386 287.678 20.7898 288.223 20.892C288.774 20.9886 289.305 21.1903 289.817 21.4972C290.334 21.804 290.763 22.267 291.104 22.8864C291.445 23.5057 291.615 24.3352 291.615 25.375V34H289.604V32.2273H289.501C289.365 32.5114 289.138 32.8153 288.82 33.1392C288.501 33.4631 288.078 33.7386 287.55 33.9659C287.021 34.1932 286.376 34.3068 285.615 34.3068ZM285.922 32.5C286.717 32.5 287.388 32.3438 287.933 32.0312C288.484 31.7188 288.899 31.3153 289.178 30.821C289.462 30.3267 289.604 29.8068 289.604 29.2614V27.4205C289.518 27.5227 289.331 27.6165 289.041 27.7017C288.757 27.7812 288.428 27.8523 288.053 27.9148C287.683 27.9716 287.322 28.0227 286.97 28.0682C286.624 28.108 286.342 28.142 286.126 28.1705C285.604 28.2386 285.115 28.3494 284.661 28.5028C284.212 28.6506 283.848 28.875 283.57 29.1761C283.297 29.4716 283.161 29.875 283.161 30.3864C283.161 31.0852 283.419 31.6136 283.936 31.9716C284.459 32.3239 285.121 32.5 285.922 32.5ZM296.752 34.1364C296.332 34.1364 295.971 33.9858 295.67 33.6847C295.369 33.3835 295.218 33.0227 295.218 32.6023C295.218 32.1818 295.369 31.821 295.67 31.5199C295.971 31.2187 296.332 31.0682 296.752 31.0682C297.173 31.0682 297.533 31.2187 297.835 31.5199C298.136 31.821 298.286 32.1818 298.286 32.6023C298.286 32.8807 298.215 33.1364 298.073 33.3693C297.937 33.6023 297.752 33.7898 297.519 33.9318C297.292 34.0682 297.036 34.1364 296.752 34.1364ZM296.752 24.4205C296.332 24.4205 295.971 24.2699 295.67 23.9688C295.369 23.6676 295.218 23.3068 295.218 22.8864C295.218 22.4659 295.369 22.1051 295.67 21.804C295.971 21.5028 296.332 21.3523 296.752 21.3523C297.173 21.3523 297.533 21.5028 297.835 21.804C298.136 22.1051 298.286 22.4659 298.286 22.8864C298.286 23.1648 298.215 23.4205 298.073 23.6534C297.937 23.8864 297.752 24.0739 297.519 24.2159C297.292 24.3523 297.036 24.4205 296.752 24.4205Z" fill="#5B5B5B"/>
<path d="M25 82C25 73.7157 31.7157 67 40 67H665C673.284 67 680 73.7157 680 82C680 90.2843 673.284 97 665 97H40C31.7157 97 25 90.2843 25 82Z" fill="url(#paint0_linear_2205_57)"/>
<path d="M582.57 48.4453C582.57 48.5755 582.564 48.6862 582.551 48.7773C582.538 48.8685 582.515 48.9434 582.482 49.002C582.456 49.0605 582.424 49.1061 582.385 49.1387C582.346 49.1647 582.297 49.1777 582.238 49.1777H579.602V56.7559C579.602 56.8079 579.589 56.8535 579.562 56.8926C579.536 56.9251 579.494 56.9544 579.436 56.9805C579.377 57.0065 579.296 57.026 579.191 57.0391C579.087 57.0521 578.954 57.0586 578.791 57.0586C578.635 57.0586 578.505 57.0521 578.4 57.0391C578.296 57.026 578.212 57.0065 578.146 56.9805C578.088 56.9544 578.046 56.9251 578.02 56.8926C578 56.8535 577.99 56.8079 577.99 56.7559V49.1777H575.354C575.301 49.1777 575.253 49.1647 575.207 49.1387C575.168 49.1061 575.135 49.0605 575.109 49.002C575.083 48.9434 575.061 48.8685 575.041 48.7773C575.028 48.6797 575.021 48.5658 575.021 48.4355C575.021 48.3184 575.028 48.2142 575.041 48.123C575.061 48.0319 575.083 47.957 575.109 47.8984C575.142 47.8333 575.178 47.7878 575.217 47.7617C575.256 47.7292 575.301 47.7129 575.354 47.7129H582.238C582.29 47.7129 582.336 47.7292 582.375 47.7617C582.421 47.7878 582.456 47.8333 582.482 47.8984C582.508 47.957 582.528 48.0352 582.541 48.1328C582.561 48.224 582.57 48.3281 582.57 48.4453ZM590.627 56.7559C590.627 56.8079 590.614 56.8535 590.588 56.8926C590.568 56.9316 590.529 56.9642 590.471 56.9902C590.412 57.0098 590.331 57.026 590.227 57.0391C590.122 57.0521 589.986 57.0586 589.816 57.0586C589.66 57.0586 589.53 57.0521 589.426 57.0391C589.322 57.026 589.237 57.0098 589.172 56.9902C589.113 56.9642 589.071 56.9316 589.045 56.8926C589.025 56.8535 589.016 56.8079 589.016 56.7559V53.0547H588.088C587.684 53.0547 587.368 53.0872 587.141 53.1523C586.919 53.2174 586.717 53.3281 586.535 53.4844C586.359 53.6341 586.2 53.8294 586.057 54.0703C585.913 54.3047 585.777 54.5944 585.646 54.9395L584.934 56.6582C584.901 56.7428 584.865 56.8112 584.826 56.8633C584.787 56.9154 584.729 56.9577 584.65 56.9902C584.579 57.0163 584.484 57.0326 584.367 57.0391C584.257 57.0521 584.117 57.0586 583.947 57.0586C583.824 57.0586 583.713 57.0553 583.615 57.0488C583.524 57.0423 583.446 57.0293 583.381 57.0098C583.316 56.9967 583.267 56.974 583.234 56.9414C583.202 56.9023 583.186 56.8568 583.186 56.8047C583.186 56.7591 583.202 56.6875 583.234 56.5898C583.273 56.4857 583.348 56.3066 583.459 56.0527L584.162 54.4023C584.344 53.9857 584.569 53.6276 584.836 53.3281C585.103 53.0221 585.409 52.7975 585.754 52.6543C585.122 52.5371 584.618 52.2865 584.24 51.9023C583.869 51.5117 583.684 50.9974 583.684 50.3594C583.684 49.9362 583.771 49.5553 583.947 49.2168C584.123 48.8717 584.38 48.582 584.719 48.3477C585.064 48.1068 585.484 47.9245 585.979 47.8008C586.48 47.6706 587.053 47.6055 587.697 47.6055C587.854 47.6055 588.033 47.6087 588.234 47.6152C588.443 47.6217 588.654 47.6315 588.869 47.6445C589.09 47.6576 589.302 47.6738 589.504 47.6934C589.712 47.7064 589.891 47.7194 590.041 47.7324C590.236 47.752 590.383 47.8236 590.48 47.9473C590.578 48.071 590.627 48.224 590.627 48.4062V56.7559ZM589.016 48.9043C588.781 48.8717 588.54 48.8522 588.293 48.8457C588.046 48.8327 587.818 48.8262 587.609 48.8262C587.167 48.8262 586.796 48.8652 586.496 48.9434C586.203 49.015 585.965 49.1224 585.783 49.2656C585.607 49.4023 585.48 49.5651 585.402 49.7539C585.331 49.9427 585.295 50.151 585.295 50.3789C585.295 50.6133 585.337 50.8249 585.422 51.0137C585.513 51.196 585.646 51.3522 585.822 51.4824C586.005 51.6061 586.236 51.7038 586.516 51.7754C586.796 51.8405 587.186 51.873 587.688 51.873H589.016V48.9043ZM605.305 56.8242C605.305 56.8633 605.292 56.8991 605.266 56.9316C605.24 56.9577 605.194 56.9805 605.129 57C605.07 57.0195 604.989 57.0326 604.885 57.0391C604.787 57.0521 604.66 57.0586 604.504 57.0586C604.322 57.0586 604.172 57.0521 604.055 57.0391C603.944 57.026 603.853 57.0098 603.781 56.9902C603.716 56.9642 603.667 56.9349 603.635 56.9023C603.602 56.8633 603.576 56.821 603.557 56.7754L602.619 54.5098C602.495 54.2168 602.365 53.9661 602.229 53.7578C602.098 53.543 601.952 53.3704 601.789 53.2402C601.626 53.11 601.438 53.0156 601.223 52.957C601.014 52.8919 600.767 52.8594 600.48 52.8594H599.826V56.834C599.826 56.8665 599.81 56.8991 599.777 56.9316C599.745 56.9577 599.696 56.9805 599.631 57C599.566 57.0195 599.481 57.0326 599.377 57.0391C599.279 57.0521 599.162 57.0586 599.025 57.0586C598.889 57.0586 598.768 57.0521 598.664 57.0391C598.56 57.0326 598.475 57.0195 598.41 57C598.345 56.9805 598.296 56.9577 598.264 56.9316C598.231 56.8991 598.215 56.8665 598.215 56.834V52.8594H597.561C597.274 52.8594 597.023 52.8919 596.809 52.957C596.594 53.0156 596.402 53.11 596.232 53.2402C596.063 53.3704 595.91 53.543 595.773 53.7578C595.643 53.9661 595.516 54.2168 595.393 54.5098L594.455 56.7754C594.442 56.821 594.416 56.8633 594.377 56.9023C594.344 56.9349 594.296 56.9642 594.23 56.9902C594.172 57.0098 594.084 57.026 593.967 57.0391C593.856 57.0521 593.713 57.0586 593.537 57.0586C593.387 57.0586 593.26 57.0521 593.156 57.0391C593.052 57.0326 592.967 57.0195 592.902 57C592.844 56.9805 592.801 56.9577 592.775 56.9316C592.749 56.8991 592.736 56.8633 592.736 56.8242C592.736 56.7852 592.743 56.7363 592.756 56.6777C592.775 56.6126 592.808 56.5312 592.854 56.4336L593.82 54.2168C593.944 53.9238 594.077 53.6667 594.221 53.4453C594.364 53.224 594.514 53.0319 594.67 52.8691C594.833 52.7064 595.005 52.5697 595.188 52.459C595.376 52.3418 595.581 52.2474 595.803 52.1758V52.1562C595.646 52.1042 595.49 52.0391 595.334 51.9609C595.184 51.8763 595.035 51.7624 594.885 51.6191C594.735 51.4694 594.589 51.2839 594.445 51.0625C594.302 50.8411 594.162 50.5677 594.025 50.2422L593.215 48.2988C593.182 48.2142 593.156 48.1393 593.137 48.0742C593.117 48.0091 593.107 47.9473 593.107 47.8887C593.107 47.8561 593.117 47.8268 593.137 47.8008C593.163 47.7682 593.202 47.7422 593.254 47.7227C593.312 47.7031 593.391 47.6901 593.488 47.6836C593.592 47.6706 593.723 47.6641 593.879 47.6641C594.055 47.6641 594.201 47.6706 594.318 47.6836C594.436 47.6901 594.53 47.7064 594.602 47.7324C594.673 47.7585 594.725 47.791 594.758 47.8301C594.797 47.8691 594.823 47.9147 594.836 47.9668L595.607 49.998C595.718 50.278 595.832 50.5189 595.949 50.7207C596.073 50.9225 596.213 51.0885 596.369 51.2188C596.525 51.3424 596.698 51.4336 596.887 51.4922C597.082 51.5443 597.307 51.5703 597.561 51.5703H598.215V47.8789C598.215 47.8464 598.231 47.8171 598.264 47.791C598.296 47.7585 598.345 47.7357 598.41 47.7227C598.475 47.7031 598.56 47.6901 598.664 47.6836C598.768 47.6706 598.889 47.6641 599.025 47.6641C599.162 47.6641 599.279 47.6706 599.377 47.6836C599.481 47.6901 599.566 47.7031 599.631 47.7227C599.696 47.7357 599.745 47.7585 599.777 47.791C599.81 47.8171 599.826 47.8464 599.826 47.8789V51.5703H600.48C600.734 51.5703 600.959 51.541 601.154 51.4824C601.35 51.4238 601.525 51.3327 601.682 51.209C601.844 51.0788 601.988 50.916 602.111 50.7207C602.242 50.5189 602.362 50.278 602.473 49.998L603.293 47.9668C603.319 47.9147 603.345 47.8691 603.371 47.8301C603.404 47.791 603.449 47.7585 603.508 47.7324C603.573 47.7064 603.658 47.6901 603.762 47.6836C603.872 47.6706 604.016 47.6641 604.191 47.6641C604.348 47.6641 604.475 47.6706 604.572 47.6836C604.676 47.6901 604.755 47.7031 604.807 47.7227C604.865 47.7422 604.904 47.7682 604.924 47.8008C604.95 47.8268 604.963 47.8561 604.963 47.8887C604.963 47.9473 604.953 48.0091 604.934 48.0742C604.914 48.1393 604.888 48.2142 604.855 48.2988L604.016 50.2422C603.879 50.5677 603.736 50.8411 603.586 51.0625C603.443 51.2773 603.296 51.4564 603.146 51.5996C602.997 51.7428 602.847 51.8568 602.697 51.9414C602.554 52.026 602.408 52.0911 602.258 52.1367V52.1562C602.479 52.2344 602.681 52.3288 602.863 52.4395C603.052 52.5501 603.225 52.6901 603.381 52.8594C603.544 53.0221 603.693 53.2174 603.83 53.4453C603.967 53.6667 604.1 53.9238 604.23 54.2168L605.188 56.4336C605.207 56.4792 605.223 56.5215 605.236 56.5605C605.256 56.5996 605.269 56.6387 605.275 56.6777C605.282 56.7103 605.288 56.7396 605.295 56.7656C605.301 56.7852 605.305 56.8047 605.305 56.8242ZM614.68 51.9805C614.68 52.2344 614.615 52.4167 614.484 52.5273C614.361 52.6315 614.217 52.6836 614.055 52.6836H608.293C608.293 53.1719 608.342 53.6113 608.439 54.002C608.537 54.3926 608.7 54.7279 608.928 55.0078C609.156 55.2878 609.452 55.5026 609.816 55.6523C610.181 55.8021 610.627 55.877 611.154 55.877C611.571 55.877 611.942 55.8444 612.268 55.7793C612.593 55.7077 612.873 55.6296 613.107 55.5449C613.348 55.4603 613.544 55.3854 613.693 55.3203C613.85 55.2487 613.967 55.2129 614.045 55.2129C614.09 55.2129 614.13 55.2259 614.162 55.252C614.201 55.2715 614.23 55.304 614.25 55.3496C614.27 55.3952 614.283 55.4603 614.289 55.5449C614.302 55.623 614.309 55.7207 614.309 55.8379C614.309 55.9225 614.305 55.9974 614.299 56.0625C614.292 56.1211 614.283 56.1764 614.27 56.2285C614.263 56.2741 614.247 56.3164 614.221 56.3555C614.201 56.3945 614.172 56.4336 614.133 56.4727C614.1 56.5052 613.996 56.5638 613.82 56.6484C613.645 56.7266 613.417 56.8047 613.137 56.8828C612.857 56.9609 612.531 57.0293 612.16 57.0879C611.796 57.153 611.405 57.1855 610.988 57.1855C610.266 57.1855 609.631 57.0846 609.084 56.8828C608.544 56.681 608.088 56.3815 607.717 55.9844C607.346 55.5872 607.066 55.0892 606.877 54.4902C606.688 53.8913 606.594 53.1947 606.594 52.4004C606.594 51.6452 606.691 50.9681 606.887 50.3691C607.082 49.7637 607.362 49.2526 607.727 48.8359C608.098 48.4128 608.544 48.0905 609.064 47.8691C609.585 47.6413 610.168 47.5273 610.812 47.5273C611.503 47.5273 612.089 47.638 612.57 47.8594C613.059 48.0807 613.459 48.3802 613.771 48.7578C614.084 49.1289 614.312 49.5684 614.455 50.0762C614.605 50.5775 614.68 51.1146 614.68 51.6875V51.9805ZM613.059 51.502C613.078 50.6556 612.889 49.9915 612.492 49.5098C612.102 49.028 611.519 48.7871 610.744 48.7871C610.347 48.7871 609.999 48.862 609.699 49.0117C609.4 49.1615 609.149 49.36 608.947 49.6074C608.745 49.8548 608.589 50.1445 608.479 50.4766C608.368 50.8021 608.306 51.1439 608.293 51.502H613.059ZM624.025 56.7559C624.025 56.8079 624.012 56.8535 623.986 56.8926C623.96 56.9251 623.918 56.9544 623.859 56.9805C623.801 57.0065 623.719 57.026 623.615 57.0391C623.511 57.0521 623.381 57.0586 623.225 57.0586C623.062 57.0586 622.928 57.0521 622.824 57.0391C622.72 57.026 622.635 57.0065 622.57 56.9805C622.512 56.9544 622.469 56.9251 622.443 56.8926C622.417 56.8535 622.404 56.8079 622.404 56.7559V49.0801H619.982C619.878 50.1152 619.751 51.0365 619.602 51.8438C619.458 52.651 619.296 53.3542 619.113 53.9531C618.931 54.5521 618.726 55.0566 618.498 55.4668C618.27 55.877 618.02 56.209 617.746 56.4629C617.479 56.7103 617.186 56.8893 616.867 57C616.555 57.1107 616.219 57.166 615.861 57.166C615.803 57.166 615.751 57.1562 615.705 57.1367C615.666 57.1172 615.633 57.0814 615.607 57.0293C615.581 56.9772 615.562 56.9056 615.549 56.8145C615.536 56.7168 615.529 56.5931 615.529 56.4434C615.529 56.2871 615.533 56.1602 615.539 56.0625C615.552 55.9648 615.568 55.8867 615.588 55.8281C615.614 55.7695 615.643 55.7305 615.676 55.7109C615.715 55.6914 615.76 55.6816 615.812 55.6816C616.027 55.6816 616.232 55.6328 616.428 55.5352C616.623 55.431 616.805 55.265 616.975 55.0371C617.144 54.8027 617.303 54.5 617.453 54.1289C617.603 53.7513 617.74 53.2891 617.863 52.7422C617.987 52.1953 618.104 51.5573 618.215 50.8281C618.326 50.0924 618.43 49.2493 618.527 48.2988C618.54 48.1035 618.586 47.9603 618.664 47.8691C618.749 47.7715 618.866 47.7227 619.016 47.7227H623.527C623.684 47.7227 623.804 47.7715 623.889 47.8691C623.98 47.9603 624.025 48.1035 624.025 48.2988V56.7559ZM635.197 52.2637C635.197 52.9798 635.103 53.6406 634.914 54.2461C634.725 54.8451 634.442 55.3626 634.064 55.7988C633.693 56.235 633.225 56.5768 632.658 56.8242C632.098 57.0651 631.447 57.1855 630.705 57.1855C629.982 57.1855 629.351 57.0781 628.811 56.8633C628.277 56.6484 627.831 56.3359 627.473 55.9258C627.115 55.5156 626.848 55.0176 626.672 54.4316C626.496 53.8457 626.408 53.1816 626.408 52.4395C626.408 51.7233 626.499 51.0658 626.682 50.4668C626.87 49.8613 627.15 49.3405 627.521 48.9043C627.899 48.4681 628.368 48.1296 628.928 47.8887C629.488 47.6478 630.142 47.5273 630.891 47.5273C631.613 47.5273 632.242 47.6348 632.775 47.8496C633.316 48.0645 633.765 48.377 634.123 48.7871C634.481 49.1973 634.748 49.6953 634.924 50.2812C635.106 50.8672 635.197 51.528 635.197 52.2637ZM633.498 52.3711C633.498 51.8958 633.452 51.4466 633.361 51.0234C633.277 50.6003 633.133 50.2292 632.932 49.9102C632.73 49.5911 632.456 49.3405 632.111 49.1582C631.766 48.9694 631.337 48.875 630.822 48.875C630.347 48.875 629.937 48.9596 629.592 49.1289C629.253 49.2982 628.973 49.5391 628.752 49.8516C628.531 50.1576 628.365 50.5221 628.254 50.9453C628.15 51.3685 628.098 51.8307 628.098 52.332C628.098 52.8138 628.14 53.2663 628.225 53.6895C628.316 54.1126 628.462 54.4837 628.664 54.8027C628.872 55.1152 629.149 55.3659 629.494 55.5547C629.839 55.737 630.269 55.8281 630.783 55.8281C631.252 55.8281 631.659 55.7435 632.004 55.5742C632.349 55.4049 632.632 55.1673 632.854 54.8613C633.075 54.5553 633.238 54.1908 633.342 53.7676C633.446 53.3444 633.498 52.8789 633.498 52.3711Z" fill="#686666"/>
<path d="M320.828 57.7559C320.828 57.8079 320.815 57.8535 320.789 57.8926C320.763 57.9251 320.721 57.9544 320.662 57.9805C320.604 58.0065 320.522 58.026 320.418 58.0391C320.314 58.0521 320.184 58.0586 320.027 58.0586C319.865 58.0586 319.731 58.0521 319.627 58.0391C319.523 58.026 319.441 58.0065 319.383 57.9805C319.324 57.9544 319.282 57.9251 319.256 57.8926C319.23 57.8535 319.217 57.8079 319.217 57.7559V53.8984H314.734V57.7559C314.734 57.8079 314.721 57.8535 314.695 57.8926C314.669 57.9251 314.627 57.9544 314.568 57.9805C314.51 58.0065 314.428 58.026 314.324 58.0391C314.22 58.0521 314.087 58.0586 313.924 58.0586C313.768 58.0586 313.637 58.0521 313.533 58.0391C313.429 58.026 313.344 58.0065 313.279 57.9805C313.221 57.9544 313.178 57.9251 313.152 57.8926C313.133 57.8535 313.123 57.8079 313.123 57.7559V48.9668C313.123 48.9147 313.133 48.8724 313.152 48.8398C313.178 48.8008 313.221 48.7682 313.279 48.7422C313.344 48.7096 313.429 48.6901 313.533 48.6836C313.637 48.6706 313.768 48.6641 313.924 48.6641C314.087 48.6641 314.22 48.6706 314.324 48.6836C314.428 48.6901 314.51 48.7096 314.568 48.7422C314.627 48.7682 314.669 48.8008 314.695 48.8398C314.721 48.8724 314.734 48.9147 314.734 48.9668V52.541H319.217V48.9668C319.217 48.9147 319.23 48.8724 319.256 48.8398C319.282 48.8008 319.324 48.7682 319.383 48.7422C319.441 48.7096 319.523 48.6901 319.627 48.6836C319.731 48.6706 319.865 48.6641 320.027 48.6641C320.184 48.6641 320.314 48.6706 320.418 48.6836C320.522 48.6901 320.604 48.7096 320.662 48.7422C320.721 48.7682 320.763 48.8008 320.789 48.8398C320.815 48.8724 320.828 48.9147 320.828 48.9668V57.7559ZM332 53.2637C332 53.9798 331.906 54.6406 331.717 55.2461C331.528 55.8451 331.245 56.3626 330.867 56.7988C330.496 57.235 330.027 57.5768 329.461 57.8242C328.901 58.0651 328.25 58.1855 327.508 58.1855C326.785 58.1855 326.154 58.0781 325.613 57.8633C325.079 57.6484 324.633 57.3359 324.275 56.9258C323.917 56.5156 323.65 56.0176 323.475 55.4316C323.299 54.8457 323.211 54.1816 323.211 53.4395C323.211 52.7233 323.302 52.0658 323.484 51.4668C323.673 50.8613 323.953 50.3405 324.324 49.9043C324.702 49.4681 325.171 49.1296 325.73 48.8887C326.29 48.6478 326.945 48.5273 327.693 48.5273C328.416 48.5273 329.044 48.6348 329.578 48.8496C330.118 49.0645 330.568 49.377 330.926 49.7871C331.284 50.1973 331.551 50.6953 331.727 51.2812C331.909 51.8672 332 52.528 332 53.2637ZM330.301 53.3711C330.301 52.8958 330.255 52.4466 330.164 52.0234C330.079 51.6003 329.936 51.2292 329.734 50.9102C329.533 50.5911 329.259 50.3405 328.914 50.1582C328.569 49.9694 328.139 49.875 327.625 49.875C327.15 49.875 326.74 49.9596 326.395 50.1289C326.056 50.2982 325.776 50.5391 325.555 50.8516C325.333 51.1576 325.167 51.5221 325.057 51.9453C324.952 52.3685 324.9 52.8307 324.9 53.332C324.9 53.8138 324.943 54.2663 325.027 54.6895C325.118 55.1126 325.265 55.4837 325.467 55.8027C325.675 56.1152 325.952 56.3659 326.297 56.5547C326.642 56.737 327.072 56.8281 327.586 56.8281C328.055 56.8281 328.462 56.7435 328.807 56.5742C329.152 56.4049 329.435 56.1673 329.656 55.8613C329.878 55.5553 330.04 55.1908 330.145 54.7676C330.249 54.3444 330.301 53.8789 330.301 53.3711ZM342.459 53.2246C342.459 53.9928 342.374 54.6829 342.205 55.2949C342.042 55.9069 341.798 56.4277 341.473 56.8574C341.154 57.2806 340.757 57.6094 340.281 57.8438C339.806 58.0716 339.262 58.1855 338.65 58.1855C338.39 58.1855 338.149 58.1595 337.928 58.1074C337.706 58.0553 337.488 57.974 337.273 57.8633C337.065 57.7526 336.857 57.6126 336.648 57.4434C336.44 57.2741 336.219 57.0755 335.984 56.8477V61.2422C335.984 61.2943 335.971 61.3398 335.945 61.3789C335.919 61.418 335.877 61.4505 335.818 61.4766C335.76 61.5026 335.678 61.5221 335.574 61.5352C335.47 61.5482 335.337 61.5547 335.174 61.5547C335.018 61.5547 334.887 61.5482 334.783 61.5352C334.679 61.5221 334.594 61.5026 334.529 61.4766C334.471 61.4505 334.428 61.418 334.402 61.3789C334.383 61.3398 334.373 61.2943 334.373 61.2422V48.9668C334.373 48.9082 334.383 48.8626 334.402 48.8301C334.422 48.791 334.461 48.7585 334.52 48.7324C334.578 48.7064 334.653 48.6901 334.744 48.6836C334.835 48.6706 334.946 48.6641 335.076 48.6641C335.213 48.6641 335.324 48.6706 335.408 48.6836C335.499 48.6901 335.574 48.7064 335.633 48.7324C335.691 48.7585 335.73 48.791 335.75 48.8301C335.776 48.8626 335.789 48.9082 335.789 48.9668V50.1484C336.056 49.875 336.313 49.6374 336.561 49.4355C336.808 49.2337 337.055 49.0677 337.303 48.9375C337.557 48.8008 337.814 48.6999 338.074 48.6348C338.341 48.5632 338.621 48.5273 338.914 48.5273C339.552 48.5273 340.096 48.651 340.545 48.8984C340.994 49.1458 341.359 49.4844 341.639 49.9141C341.925 50.3438 342.133 50.8451 342.264 51.418C342.394 51.9844 342.459 52.5866 342.459 53.2246ZM340.76 53.4102C340.76 52.9609 340.724 52.528 340.652 52.1113C340.587 51.6882 340.47 51.3138 340.301 50.9883C340.138 50.6628 339.917 50.4023 339.637 50.207C339.357 50.0117 339.008 49.9141 338.592 49.9141C338.383 49.9141 338.178 49.9466 337.977 50.0117C337.775 50.0703 337.57 50.168 337.361 50.3047C337.153 50.4349 336.935 50.6107 336.707 50.832C336.479 51.0469 336.238 51.3138 335.984 51.6328V55.1289C336.427 55.6693 336.847 56.0827 337.244 56.3691C337.641 56.6556 338.058 56.7988 338.494 56.7988C338.898 56.7988 339.243 56.7012 339.529 56.5059C339.822 56.3105 340.057 56.0501 340.232 55.7246C340.415 55.3991 340.548 55.0345 340.633 54.6309C340.717 54.2272 340.76 53.8203 340.76 53.4102ZM355.975 57.668C355.981 57.8112 355.936 57.9121 355.838 57.9707C355.74 58.0293 355.542 58.0586 355.242 58.0586C355.079 58.0586 354.946 58.0553 354.842 58.0488C354.738 58.0423 354.656 58.0293 354.598 58.0098C354.539 57.9902 354.497 57.9642 354.471 57.9316C354.451 57.8926 354.438 57.8438 354.432 57.7852L353.797 52.6582C353.777 52.4759 353.758 52.2806 353.738 52.0723C353.719 51.8639 353.699 51.6523 353.68 51.4375C353.66 51.2227 353.641 51.0078 353.621 50.793C353.608 50.5781 353.592 50.3763 353.572 50.1875L353.562 49.9629C353.504 50.1517 353.442 50.3503 353.377 50.5586C353.312 50.7669 353.24 50.9785 353.162 51.1934C353.09 51.4082 353.019 51.623 352.947 51.8379C352.882 52.0527 352.82 52.2546 352.762 52.4434L350.916 57.6484C350.89 57.7266 350.857 57.7917 350.818 57.8438C350.786 57.8958 350.737 57.9382 350.672 57.9707C350.613 58.0033 350.535 58.026 350.438 58.0391C350.346 58.0521 350.232 58.0586 350.096 58.0586C349.959 58.0586 349.845 58.0521 349.754 58.0391C349.663 58.026 349.585 58.0065 349.52 57.9805C349.461 57.9479 349.412 57.9056 349.373 57.8535C349.334 57.8014 349.301 57.7363 349.275 57.6582L347.498 52.4434C347.433 52.2611 347.365 52.0658 347.293 51.8574C347.228 51.6491 347.16 51.4375 347.088 51.2227C347.023 51.0013 346.958 50.7832 346.893 50.5684C346.827 50.3535 346.772 50.1517 346.727 49.9629L346.717 50.1875C346.697 50.3763 346.678 50.5781 346.658 50.793C346.639 51.0078 346.616 51.2227 346.59 51.4375C346.57 51.6523 346.548 51.8639 346.521 52.0723C346.502 52.2806 346.486 52.4759 346.473 52.6582L345.867 57.6973C345.861 57.7754 345.844 57.8405 345.818 57.8926C345.799 57.9382 345.757 57.974 345.691 58C345.626 58.0195 345.542 58.0326 345.438 58.0391C345.333 58.0521 345.197 58.0586 345.027 58.0586C344.865 58.0586 344.734 58.0521 344.637 58.0391C344.546 58.026 344.474 58.0033 344.422 57.9707C344.376 57.9382 344.347 57.8991 344.334 57.8535C344.321 57.8014 344.321 57.7396 344.334 57.668L345.301 49.3477C345.333 49.1393 345.405 48.9831 345.516 48.8789C345.633 48.7682 345.805 48.7129 346.033 48.7129H346.805C346.993 48.7129 347.153 48.7292 347.283 48.7617C347.42 48.7878 347.534 48.8366 347.625 48.9082C347.723 48.9798 347.804 49.0775 347.869 49.2012C347.934 49.3184 347.996 49.4681 348.055 49.6504L349.354 53.3906C349.425 53.6185 349.5 53.8496 349.578 54.084C349.656 54.3118 349.728 54.5397 349.793 54.7676C349.865 54.9889 349.93 55.207 349.988 55.4219C350.053 55.6367 350.112 55.8418 350.164 56.0371H350.184C350.242 55.8353 350.301 55.6237 350.359 55.4023C350.424 55.1745 350.493 54.9466 350.564 54.7188C350.636 54.4844 350.708 54.2533 350.779 54.0254C350.857 53.7975 350.932 53.5794 351.004 53.3711L352.303 49.6504C352.355 49.4876 352.41 49.3477 352.469 49.2305C352.534 49.1068 352.612 49.0091 352.703 48.9375C352.794 48.8594 352.902 48.804 353.025 48.7715C353.156 48.7324 353.312 48.7129 353.494 48.7129H354.256C354.49 48.7129 354.666 48.7617 354.783 48.8594C354.907 48.957 354.979 49.1133 354.998 49.3281L355.975 57.668ZM365.037 57.7656C365.037 57.8438 365.011 57.9023 364.959 57.9414C364.907 57.9805 364.835 58.0098 364.744 58.0293C364.653 58.0488 364.52 58.0586 364.344 58.0586C364.174 58.0586 364.038 58.0488 363.934 58.0293C363.836 58.0098 363.764 57.9805 363.719 57.9414C363.673 57.9023 363.65 57.8438 363.65 57.7656V56.8867C363.266 57.2969 362.837 57.6159 362.361 57.8438C361.893 58.0716 361.395 58.1855 360.867 58.1855C360.405 58.1855 359.985 58.1237 359.607 58C359.236 57.8828 358.917 57.7103 358.65 57.4824C358.39 57.2546 358.185 56.9746 358.035 56.6426C357.892 56.3105 357.82 55.9329 357.82 55.5098C357.82 55.015 357.921 54.5853 358.123 54.2207C358.325 53.8561 358.615 53.5534 358.992 53.3125C359.37 53.0716 359.832 52.8926 360.379 52.7754C360.926 52.6517 361.541 52.5898 362.225 52.5898H363.436V51.9062C363.436 51.5677 363.4 51.2682 363.328 51.0078C363.257 50.7474 363.139 50.5326 362.977 50.3633C362.82 50.1875 362.615 50.0573 362.361 49.9727C362.107 49.8815 361.795 49.8359 361.424 49.8359C361.027 49.8359 360.669 49.8848 360.35 49.9824C360.037 50.0736 359.76 50.1777 359.52 50.2949C359.285 50.4056 359.087 50.5098 358.924 50.6074C358.768 50.6986 358.65 50.7441 358.572 50.7441C358.52 50.7441 358.475 50.7311 358.436 50.7051C358.396 50.679 358.361 50.64 358.328 50.5879C358.302 50.5358 358.283 50.4707 358.27 50.3926C358.257 50.3079 358.25 50.2168 358.25 50.1191C358.25 49.9564 358.26 49.8294 358.279 49.7383C358.305 49.6406 358.361 49.5495 358.445 49.4648C358.536 49.3802 358.689 49.2826 358.904 49.1719C359.119 49.0547 359.367 48.9505 359.646 48.8594C359.926 48.7617 360.232 48.6836 360.564 48.625C360.896 48.5599 361.232 48.5273 361.57 48.5273C362.202 48.5273 362.739 48.599 363.182 48.7422C363.624 48.8854 363.982 49.097 364.256 49.377C364.529 49.6504 364.728 49.9922 364.852 50.4023C364.975 50.8125 365.037 51.291 365.037 51.8379V57.7656ZM363.436 53.752H362.059C361.616 53.752 361.232 53.791 360.906 53.8691C360.581 53.9408 360.311 54.0514 360.096 54.2012C359.881 54.3444 359.721 54.5202 359.617 54.7285C359.52 54.9303 359.471 55.1647 359.471 55.4316C359.471 55.8874 359.614 56.252 359.9 56.5254C360.193 56.7923 360.6 56.9258 361.121 56.9258C361.544 56.9258 361.935 56.8184 362.293 56.6035C362.658 56.3887 363.038 56.0599 363.436 55.6172V53.752ZM375.223 57.7559C375.223 57.8079 375.21 57.8535 375.184 57.8926C375.158 57.9251 375.115 57.9544 375.057 57.9805C374.998 58.0065 374.917 58.026 374.812 58.0391C374.708 58.0521 374.578 58.0586 374.422 58.0586C374.259 58.0586 374.126 58.0521 374.021 58.0391C373.917 58.026 373.833 58.0065 373.768 57.9805C373.709 57.9544 373.667 57.9251 373.641 57.8926C373.615 57.8535 373.602 57.8079 373.602 57.7559V50.0801H371.18C371.076 51.1152 370.949 52.0365 370.799 52.8438C370.656 53.651 370.493 54.3542 370.311 54.9531C370.128 55.5521 369.923 56.0566 369.695 56.4668C369.467 56.877 369.217 57.209 368.943 57.4629C368.676 57.7103 368.383 57.8893 368.064 58C367.752 58.1107 367.417 58.166 367.059 58.166C367 58.166 366.948 58.1562 366.902 58.1367C366.863 58.1172 366.831 58.0814 366.805 58.0293C366.779 57.9772 366.759 57.9056 366.746 57.8145C366.733 57.7168 366.727 57.5931 366.727 57.4434C366.727 57.2871 366.73 57.1602 366.736 57.0625C366.749 56.9648 366.766 56.8867 366.785 56.8281C366.811 56.7695 366.84 56.7305 366.873 56.7109C366.912 56.6914 366.958 56.6816 367.01 56.6816C367.225 56.6816 367.43 56.6328 367.625 56.5352C367.82 56.431 368.003 56.265 368.172 56.0371C368.341 55.8027 368.501 55.5 368.65 55.1289C368.8 54.7513 368.937 54.2891 369.061 53.7422C369.184 53.1953 369.301 52.5573 369.412 51.8281C369.523 51.0924 369.627 50.2493 369.725 49.2988C369.738 49.1035 369.783 48.9603 369.861 48.8691C369.946 48.7715 370.063 48.7227 370.213 48.7227H374.725C374.881 48.7227 375.001 48.7715 375.086 48.8691C375.177 48.9603 375.223 49.1035 375.223 49.2988V57.7559ZM385.516 54.9629C385.516 55.4121 385.431 55.832 385.262 56.2227C385.099 56.6133 384.842 56.9518 384.49 57.2383C384.139 57.5247 383.689 57.7526 383.143 57.9219C382.596 58.0846 381.941 58.166 381.18 58.166C381.004 58.166 380.822 58.1628 380.633 58.1562C380.444 58.1562 380.258 58.1497 380.076 58.1367C379.894 58.1302 379.715 58.1204 379.539 58.1074C379.363 58.0944 379.191 58.0781 379.021 58.0586C378.748 58.026 378.546 57.9382 378.416 57.7949C378.286 57.6517 378.221 57.4336 378.221 57.1406V48.9668C378.221 48.9147 378.23 48.8724 378.25 48.8398C378.276 48.8008 378.318 48.7682 378.377 48.7422C378.442 48.7096 378.527 48.6901 378.631 48.6836C378.735 48.6706 378.865 48.6641 379.021 48.6641C379.178 48.6641 379.308 48.6706 379.412 48.6836C379.516 48.6901 379.598 48.7096 379.656 48.7422C379.721 48.7682 379.767 48.8008 379.793 48.8398C379.819 48.8724 379.832 48.9147 379.832 48.9668V52.0625C380.073 52.043 380.333 52.0299 380.613 52.0234C380.893 52.0104 381.18 52.0039 381.473 52.0039C382.182 52.0039 382.791 52.0755 383.299 52.2188C383.813 52.3555 384.233 52.554 384.559 52.8145C384.884 53.0749 385.125 53.3874 385.281 53.752C385.438 54.11 385.516 54.5137 385.516 54.9629ZM383.816 55.0703C383.816 54.8034 383.774 54.5625 383.689 54.3477C383.605 54.1263 383.465 53.9408 383.27 53.791C383.074 53.6348 382.82 53.5176 382.508 53.4395C382.195 53.3548 381.811 53.3125 381.355 53.3125C381.082 53.3125 380.812 53.319 380.545 53.332C380.285 53.3451 380.047 53.3613 379.832 53.3809V56.7598C380.06 56.7858 380.304 56.8086 380.564 56.8281C380.825 56.8477 381.115 56.8574 381.434 56.8574C382.241 56.8574 382.84 56.7012 383.23 56.3887C383.621 56.0697 383.816 55.6302 383.816 55.0703ZM395.32 57.7559C395.32 57.8079 395.307 57.8535 395.281 57.8926C395.255 57.9251 395.213 57.9544 395.154 57.9805C395.096 58.0065 395.014 58.026 394.91 58.0391C394.806 58.0521 394.676 58.0586 394.52 58.0586C394.357 58.0586 394.223 58.0521 394.119 58.0391C394.015 58.026 393.934 58.0065 393.875 57.9805C393.816 57.9544 393.774 57.9251 393.748 57.8926C393.722 57.8535 393.709 57.8079 393.709 57.7559V53.8984H389.227V57.7559C389.227 57.8079 389.214 57.8535 389.188 57.8926C389.161 57.9251 389.119 57.9544 389.061 57.9805C389.002 58.0065 388.921 58.026 388.816 58.0391C388.712 58.0521 388.579 58.0586 388.416 58.0586C388.26 58.0586 388.13 58.0521 388.025 58.0391C387.921 58.026 387.837 58.0065 387.771 57.9805C387.713 57.9544 387.671 57.9251 387.645 57.8926C387.625 57.8535 387.615 57.8079 387.615 57.7559V48.9668C387.615 48.9147 387.625 48.8724 387.645 48.8398C387.671 48.8008 387.713 48.7682 387.771 48.7422C387.837 48.7096 387.921 48.6901 388.025 48.6836C388.13 48.6706 388.26 48.6641 388.416 48.6641C388.579 48.6641 388.712 48.6706 388.816 48.6836C388.921 48.6901 389.002 48.7096 389.061 48.7422C389.119 48.7682 389.161 48.8008 389.188 48.8398C389.214 48.8724 389.227 48.9147 389.227 48.9668V52.541H393.709V48.9668C393.709 48.9147 393.722 48.8724 393.748 48.8398C393.774 48.8008 393.816 48.7682 393.875 48.7422C393.934 48.7096 394.015 48.6901 394.119 48.6836C394.223 48.6706 394.357 48.6641 394.52 48.6641C394.676 48.6641 394.806 48.6706 394.91 48.6836C395.014 48.6901 395.096 48.7096 395.154 48.7422C395.213 48.7682 395.255 48.8008 395.281 48.8398C395.307 48.8724 395.32 48.9147 395.32 48.9668V57.7559ZM406.492 53.2637C406.492 53.9798 406.398 54.6406 406.209 55.2461C406.02 55.8451 405.737 56.3626 405.359 56.7988C404.988 57.235 404.52 57.5768 403.953 57.8242C403.393 58.0651 402.742 58.1855 402 58.1855C401.277 58.1855 400.646 58.0781 400.105 57.8633C399.572 57.6484 399.126 57.3359 398.768 56.9258C398.41 56.5156 398.143 56.0176 397.967 55.4316C397.791 54.8457 397.703 54.1816 397.703 53.4395C397.703 52.7233 397.794 52.0658 397.977 51.4668C398.165 50.8613 398.445 50.3405 398.816 49.9043C399.194 49.4681 399.663 49.1296 400.223 48.8887C400.783 48.6478 401.437 48.5273 402.186 48.5273C402.908 48.5273 403.536 48.6348 404.07 48.8496C404.611 49.0645 405.06 49.377 405.418 49.7871C405.776 50.1973 406.043 50.6953 406.219 51.2812C406.401 51.8672 406.492 52.528 406.492 53.2637ZM404.793 53.3711C404.793 52.8958 404.747 52.4466 404.656 52.0234C404.572 51.6003 404.428 51.2292 404.227 50.9102C404.025 50.5911 403.751 50.3405 403.406 50.1582C403.061 49.9694 402.632 49.875 402.117 49.875C401.642 49.875 401.232 49.9596 400.887 50.1289C400.548 50.2982 400.268 50.5391 400.047 50.8516C399.826 51.1576 399.66 51.5221 399.549 51.9453C399.445 52.3685 399.393 52.8307 399.393 53.332C399.393 53.8138 399.435 54.2663 399.52 54.6895C399.611 55.1126 399.757 55.4837 399.959 55.8027C400.167 56.1152 400.444 56.3659 400.789 56.5547C401.134 56.737 401.564 56.8281 402.078 56.8281C402.547 56.8281 402.954 56.7435 403.299 56.5742C403.644 56.4049 403.927 56.1673 404.148 55.8613C404.37 55.5553 404.533 55.1908 404.637 54.7676C404.741 54.3444 404.793 53.8789 404.793 53.3711Z" fill="#686666"/>
<path d="M89.9004 56.7559C89.9004 56.8079 89.8874 56.8535 89.8613 56.8926C89.8353 56.9251 89.793 56.9544 89.7344 56.9805C89.6758 57.0065 89.5944 57.026 89.4902 57.0391C89.3861 57.0521 89.2559 57.0586 89.0996 57.0586C88.9368 57.0586 88.8034 57.0521 88.6992 57.0391C88.5951 57.026 88.5104 57.0065 88.4453 56.9805C88.3867 56.9544 88.3444 56.9251 88.3184 56.8926C88.2923 56.8535 88.2793 56.8079 88.2793 56.7559V49.0801H85.8574C85.7533 50.1152 85.6263 51.0365 85.4766 51.8438C85.3333 52.651 85.1706 53.3542 84.9883 53.9531C84.806 54.5521 84.6009 55.0566 84.373 55.4668C84.1452 55.877 83.8945 56.209 83.6211 56.4629C83.3542 56.7103 83.0612 56.8893 82.7422 57C82.4297 57.1107 82.0944 57.166 81.7363 57.166C81.6777 57.166 81.6257 57.1562 81.5801 57.1367C81.541 57.1172 81.5085 57.0814 81.4824 57.0293C81.4564 56.9772 81.4368 56.9056 81.4238 56.8145C81.4108 56.7168 81.4043 56.5931 81.4043 56.4434C81.4043 56.2871 81.4076 56.1602 81.4141 56.0625C81.4271 55.9648 81.4434 55.8867 81.4629 55.8281C81.4889 55.7695 81.5182 55.7305 81.5508 55.7109C81.5898 55.6914 81.6354 55.6816 81.6875 55.6816C81.9023 55.6816 82.1074 55.6328 82.3027 55.5352C82.498 55.431 82.6803 55.265 82.8496 55.0371C83.0189 54.8027 83.1784 54.5 83.3281 54.1289C83.4779 53.7513 83.6146 53.2891 83.7383 52.7422C83.862 52.1953 83.9792 51.5573 84.0898 50.8281C84.2005 50.0924 84.3047 49.2493 84.4023 48.2988C84.4154 48.1035 84.4609 47.9603 84.5391 47.8691C84.6237 47.7715 84.7409 47.7227 84.8906 47.7227H89.4023C89.5586 47.7227 89.679 47.7715 89.7637 47.8691C89.8548 47.9603 89.9004 48.1035 89.9004 48.2988V56.7559ZM100.398 51.9805C100.398 52.2344 100.333 52.4167 100.203 52.5273C100.079 52.6315 99.9362 52.6836 99.7734 52.6836H94.0117C94.0117 53.1719 94.0605 53.6113 94.1582 54.002C94.2559 54.3926 94.4186 54.7279 94.6465 55.0078C94.8743 55.2878 95.1706 55.5026 95.5352 55.6523C95.8997 55.8021 96.3457 55.877 96.873 55.877C97.2897 55.877 97.6608 55.8444 97.9863 55.7793C98.3118 55.7077 98.5918 55.6296 98.8262 55.5449C99.0671 55.4603 99.2624 55.3854 99.4121 55.3203C99.5684 55.2487 99.6855 55.2129 99.7637 55.2129C99.8092 55.2129 99.8483 55.2259 99.8809 55.252C99.9199 55.2715 99.9492 55.304 99.9688 55.3496C99.9883 55.3952 100.001 55.4603 100.008 55.5449C100.021 55.623 100.027 55.7207 100.027 55.8379C100.027 55.9225 100.024 55.9974 100.018 56.0625C100.011 56.1211 100.001 56.1764 99.9883 56.2285C99.9818 56.2741 99.9655 56.3164 99.9395 56.3555C99.9199 56.3945 99.8906 56.4336 99.8516 56.4727C99.819 56.5052 99.7148 56.5638 99.5391 56.6484C99.3633 56.7266 99.1354 56.8047 98.8555 56.8828C98.5755 56.9609 98.25 57.0293 97.8789 57.0879C97.5143 57.153 97.1237 57.1855 96.707 57.1855C95.9844 57.1855 95.3496 57.0846 94.8027 56.8828C94.2624 56.681 93.8066 56.3815 93.4355 55.9844C93.0645 55.5872 92.7845 55.0892 92.5957 54.4902C92.4069 53.8913 92.3125 53.1947 92.3125 52.4004C92.3125 51.6452 92.4102 50.9681 92.6055 50.3691C92.8008 49.7637 93.0807 49.2526 93.4453 48.8359C93.8164 48.4128 94.2624 48.0905 94.7832 47.8691C95.304 47.6413 95.8867 47.5273 96.5312 47.5273C97.2214 47.5273 97.8073 47.638 98.2891 47.8594C98.7773 48.0807 99.1777 48.3802 99.4902 48.7578C99.8027 49.1289 100.031 49.5684 100.174 50.0762C100.324 50.5775 100.398 51.1146 100.398 51.6875V51.9805ZM98.7773 51.502C98.7969 50.6556 98.6081 49.9915 98.2109 49.5098C97.8203 49.028 97.2376 48.7871 96.4629 48.7871C96.0658 48.7871 95.7174 48.862 95.418 49.0117C95.1185 49.1615 94.8678 49.36 94.666 49.6074C94.4642 49.8548 94.3079 50.1445 94.1973 50.4766C94.0866 50.8021 94.0247 51.1439 94.0117 51.502H98.7773ZM108.104 48.4355C108.104 48.5658 108.094 48.6764 108.074 48.7676C108.061 48.8587 108.038 48.9336 108.006 48.9922C107.98 49.0508 107.947 49.0931 107.908 49.1191C107.876 49.1452 107.833 49.1582 107.781 49.1582H104.471V56.7559C104.471 56.8079 104.458 56.8535 104.432 56.8926C104.406 56.9251 104.363 56.9544 104.305 56.9805C104.246 57.0065 104.165 57.026 104.061 57.0391C103.956 57.0521 103.823 57.0586 103.66 57.0586C103.504 57.0586 103.374 57.0521 103.27 57.0391C103.165 57.026 103.081 57.0065 103.016 56.9805C102.957 56.9544 102.915 56.9251 102.889 56.8926C102.869 56.8535 102.859 56.8079 102.859 56.7559V48.2891C102.859 48.0938 102.902 47.9505 102.986 47.8594C103.077 47.7617 103.201 47.7129 103.357 47.7129H107.781C107.833 47.7129 107.876 47.7292 107.908 47.7617C107.947 47.7878 107.98 47.8333 108.006 47.8984C108.038 47.957 108.061 48.0319 108.074 48.123C108.094 48.2077 108.104 48.3118 108.104 48.4355ZM116.941 56.8242C116.941 56.8633 116.928 56.8991 116.902 56.9316C116.883 56.9577 116.84 56.9805 116.775 57C116.717 57.0195 116.635 57.0326 116.531 57.0391C116.434 57.0521 116.307 57.0586 116.15 57.0586C115.968 57.0586 115.818 57.0521 115.701 57.0391C115.59 57.026 115.499 57.0098 115.428 56.9902C115.356 56.9642 115.304 56.9349 115.271 56.9023C115.239 56.8633 115.216 56.821 115.203 56.7754L114.266 54.5C114.148 54.207 114.021 53.9564 113.885 53.748C113.755 53.5332 113.602 53.3607 113.426 53.2305C113.25 53.1003 113.051 53.0059 112.83 52.9473C112.609 52.8887 112.355 52.8594 112.068 52.8594H111.385V56.8145C111.385 56.847 111.368 56.8796 111.336 56.9121C111.303 56.9447 111.255 56.9707 111.189 56.9902C111.124 57.0098 111.04 57.026 110.936 57.0391C110.831 57.0521 110.711 57.0586 110.574 57.0586C110.438 57.0586 110.317 57.0521 110.213 57.0391C110.109 57.026 110.024 57.0098 109.959 56.9902C109.894 56.9707 109.845 56.9447 109.812 56.9121C109.786 56.8796 109.773 56.847 109.773 56.8145V47.8887C109.773 47.8561 109.786 47.8268 109.812 47.8008C109.845 47.7682 109.894 47.7422 109.959 47.7227C110.024 47.7031 110.109 47.6901 110.213 47.6836C110.317 47.6706 110.438 47.6641 110.574 47.6641C110.711 47.6641 110.831 47.6706 110.936 47.6836C111.04 47.6901 111.124 47.7031 111.189 47.7227C111.255 47.7422 111.303 47.7682 111.336 47.8008C111.368 47.8268 111.385 47.8561 111.385 47.8887V51.5703H112.068C112.316 51.5703 112.54 51.5443 112.742 51.4922C112.951 51.4336 113.139 51.3424 113.309 51.2188C113.478 51.0885 113.628 50.9225 113.758 50.7207C113.895 50.5189 114.018 50.2747 114.129 49.9883L114.949 47.9668C114.962 47.9147 114.985 47.8691 115.018 47.8301C115.05 47.791 115.099 47.7585 115.164 47.7324C115.229 47.7064 115.314 47.6901 115.418 47.6836C115.529 47.6706 115.672 47.6641 115.848 47.6641C116.004 47.6641 116.131 47.6706 116.229 47.6836C116.333 47.6901 116.411 47.7031 116.463 47.7227C116.521 47.7422 116.561 47.7682 116.58 47.8008C116.6 47.8268 116.609 47.8561 116.609 47.8887C116.609 47.9473 116.6 48.0091 116.58 48.0742C116.567 48.1393 116.544 48.2142 116.512 48.2988L115.672 50.2324C115.542 50.5579 115.398 50.8314 115.242 51.0527C115.092 51.2741 114.939 51.4596 114.783 51.6094C114.627 51.7526 114.467 51.8665 114.305 51.9512C114.142 52.0293 113.986 52.0911 113.836 52.1367V52.1562C114.064 52.2344 114.272 52.3288 114.461 52.4395C114.656 52.5501 114.835 52.6868 114.998 52.8496C115.167 53.0124 115.324 53.2077 115.467 53.4355C115.61 53.6569 115.743 53.9141 115.867 54.207L116.834 56.4336C116.86 56.4792 116.88 56.5215 116.893 56.5605C116.906 56.5996 116.915 56.6387 116.922 56.6777C116.928 56.7103 116.932 56.7396 116.932 56.7656C116.938 56.7852 116.941 56.8047 116.941 56.8242ZM126.932 52.2637C126.932 52.9798 126.837 53.6406 126.648 54.2461C126.46 54.8451 126.176 55.3626 125.799 55.7988C125.428 56.235 124.959 56.5768 124.393 56.8242C123.833 57.0651 123.182 57.1855 122.439 57.1855C121.717 57.1855 121.085 57.0781 120.545 56.8633C120.011 56.6484 119.565 56.3359 119.207 55.9258C118.849 55.5156 118.582 55.0176 118.406 54.4316C118.23 53.8457 118.143 53.1816 118.143 52.4395C118.143 51.7233 118.234 51.0658 118.416 50.4668C118.605 49.8613 118.885 49.3405 119.256 48.9043C119.633 48.4681 120.102 48.1296 120.662 47.8887C121.222 47.6478 121.876 47.5273 122.625 47.5273C123.348 47.5273 123.976 47.6348 124.51 47.8496C125.05 48.0645 125.499 48.377 125.857 48.7871C126.215 49.1973 126.482 49.6953 126.658 50.2812C126.84 50.8672 126.932 51.528 126.932 52.2637ZM125.232 52.3711C125.232 51.8958 125.187 51.4466 125.096 51.0234C125.011 50.6003 124.868 50.2292 124.666 49.9102C124.464 49.5911 124.191 49.3405 123.846 49.1582C123.501 48.9694 123.071 48.875 122.557 48.875C122.081 48.875 121.671 48.9596 121.326 49.1289C120.988 49.2982 120.708 49.5391 120.486 49.8516C120.265 50.1576 120.099 50.5221 119.988 50.9453C119.884 51.3685 119.832 51.8307 119.832 52.332C119.832 52.8138 119.874 53.2663 119.959 53.6895C120.05 54.1126 120.197 54.4837 120.398 54.8027C120.607 55.1152 120.883 55.3659 121.229 55.5547C121.574 55.737 122.003 55.8281 122.518 55.8281C122.986 55.8281 123.393 55.7435 123.738 55.5742C124.083 55.4049 124.367 55.1673 124.588 54.8613C124.809 54.5553 124.972 54.1908 125.076 53.7676C125.18 53.3444 125.232 52.8789 125.232 52.3711Z" fill="#686666"/>
<mask id="mask0_2205_57" style="mask-type:alpha" maskUnits="userSpaceOnUse" x="25" y="67" width="148" height="30">
<path d="M25 82C25 73.7157 31.7157 67 40 67H158C166.284 67 173 73.7157 173 82V82C173 90.2843 166.284 97 158 97H40C31.7157 97 25 90.2843 25 82V82Z" fill="white"/>
</mask>
<g mask="url(#mask0_2205_57)">
<path d="M25 82C25 73.7157 31.7157 67 40 67H665C673.284 67 680 73.7157 680 82C680 90.2843 673.284 97 665 97H40C31.7157 97 25 90.2843 25 82Z" fill="url(#paint1_linear_2205_57)"/>
</g>
<defs>
<linearGradient id="paint0_linear_2205_57" x1="25" y1="82" x2="680" y2="82" gradientUnits="userSpaceOnUse">
<stop stop-color="#6B79A8"/>
<stop offset="0.5" stop-color="#60A763"/>
<stop offset="1" stop-color="#AD783D"/>
</linearGradient>
<linearGradient id="paint1_linear_2205_57" x1="25" y1="82" x2="680" y2="82" gradientUnits="userSpaceOnUse">
<stop stop-color="#86BBD8"/>
<stop offset="0.5" stop-color="#BAE96D"/>
<stop offset="1" stop-color="#FFA541"/>
</linearGradient>
</defs>
</svg>
