<svg width="77" height="79" viewBox="0 0 77 79" fill="none" xmlns="http://www.w3.org/2000/svg">
<path d="M72.1875 17.896H4.8125C3.81631 17.896 3.00781 18.7255 3.00781 19.7476C3.00781 20.7696 3.81631 21.5991 4.8125 21.5991H72.1875C73.1837 21.5991 73.9922 20.7696 73.9922 19.7476C73.9922 18.7255 73.1837 17.896 72.1875 17.896ZM43.3125 37.6485H4.8125C3.81631 37.6485 3.00781 38.478 3.00781 39.5C3.00781 40.5221 3.81631 41.3516 4.8125 41.3516H43.3125C44.3087 41.3516 45.1172 40.5221 45.1172 39.5C45.1172 38.478 44.3087 37.6485 43.3125 37.6485ZM19.3775 57.3985H4.8125C3.81631 57.3985 3.00781 58.228 3.00781 59.25C3.00781 60.2721 3.81631 61.1016 4.8125 61.1016H19.3775C20.3737 61.1016 21.1822 60.2721 21.1822 59.25C21.1822 58.228 20.3737 57.3985 19.3775 57.3985Z" fill="black"/>
</svg>
