<svg width="55" height="55" viewBox="0 0 55 55" fill="none" xmlns="http://www.w3.org/2000/svg">
<path d="M21.5304 44.3922L22.8697 47.4044C23.2679 48.3011 23.9177 49.063 24.7403 49.5977C25.5628 50.1324 26.5229 50.4169 27.504 50.4167C28.4851 50.4169 29.4451 50.1324 30.2677 49.5977C31.0903 49.063 31.7401 48.3011 32.1383 47.4044L33.4776 44.3922C33.9544 43.3233 34.7564 42.4322 35.7693 41.8459C36.7886 41.2579 37.9677 41.0075 39.138 41.1304L42.4151 41.4792C43.3906 41.5824 44.3751 41.4004 45.2492 40.9552C46.1233 40.51 46.8494 39.8208 47.3396 38.9711C47.8305 38.1219 48.0643 37.1486 48.0128 36.1692C47.9613 35.1897 47.6266 34.2463 47.0494 33.4533L45.1091 30.7873C44.4182 29.831 44.049 28.6798 44.0549 27.5C44.0547 26.3235 44.4273 25.1771 45.1193 24.2255L47.0595 21.5595C47.6368 20.7666 47.9714 19.8231 48.023 18.8437C48.0745 17.8642 47.8407 16.8909 47.3498 16.0417C46.8596 15.192 46.1335 14.5028 45.2594 14.0576C44.3853 13.6125 43.4008 13.4304 42.4253 13.5336L39.1482 13.8824C37.9779 14.0054 36.7988 13.7549 35.7795 13.1669C34.7645 12.5773 33.9623 11.6815 33.4878 10.6079L32.1383 7.59564C31.7401 6.69897 31.0903 5.9371 30.2677 5.40241C29.4451 4.86773 28.4851 4.58321 27.504 4.58337C26.5229 4.58321 25.5628 4.86773 24.7403 5.40241C23.9177 5.9371 23.2679 6.69897 22.8697 7.59564L21.5304 10.6079C21.0558 11.6815 20.2536 12.5773 19.2387 13.1669C18.2194 13.7549 17.0403 14.0054 15.87 13.8824L12.5827 13.5336C11.6072 13.4304 10.6227 13.6125 9.74863 14.0576C8.87453 14.5028 8.14836 15.192 7.65816 16.0417C7.16734 16.8909 6.9335 17.8642 6.98503 18.8437C7.03655 19.8231 7.37123 20.7666 7.94844 21.5595L9.88872 24.2255C10.5807 25.1771 10.9533 26.3235 10.9531 27.5C10.9533 28.6766 10.5807 29.823 9.88872 30.7746L7.94844 33.4406C7.37123 34.2335 7.03655 35.177 6.98503 36.1564C6.9335 37.1359 7.16734 38.1092 7.65816 38.9584C8.14885 39.8076 8.8751 40.4964 9.74908 40.9416C10.623 41.3867 11.6073 41.569 12.5827 41.4665L15.8598 41.1176C17.0301 40.9947 18.2092 41.2452 19.2285 41.8331C20.2472 42.4211 21.0532 43.3171 21.5304 44.3922Z" stroke="#344661" stroke-width="2" stroke-linecap="round" stroke-linejoin="round"/>
<path d="M27.4999 34.375C31.2969 34.375 34.3749 31.297 34.3749 27.5C34.3749 23.7031 31.2969 20.625 27.4999 20.625C23.7029 20.625 20.6249 23.7031 20.6249 27.5C20.6249 31.297 23.7029 34.375 27.4999 34.375Z" stroke="#344661" stroke-width="2" stroke-linecap="round" stroke-linejoin="round"/>
</svg>
