<svg width="632" height="106" viewBox="0 0 632 106" fill="none" xmlns="http://www.w3.org/2000/svg">
<circle cx="444" cy="37" r="37" fill="#C0DCEC"/>
<path d="M433.96 44L440.466 31.1307V31.017H432.966V29.4545H442.284V31.1023L435.807 44H433.96ZM449.449 44.1989C448.852 44.1894 448.255 44.0758 447.659 43.858C447.062 43.6402 446.518 43.2732 446.025 42.7571C445.533 42.2363 445.137 41.5331 444.839 40.6477C444.541 39.7576 444.392 38.6402 444.392 37.2955C444.392 36.0076 444.512 34.8665 444.754 33.8722C444.995 32.8731 445.346 32.0327 445.805 31.3509C446.264 30.6643 446.818 30.1435 447.467 29.7884C448.12 29.4332 448.857 29.2557 449.676 29.2557C450.49 29.2557 451.215 29.419 451.849 29.7457C452.488 30.0677 453.009 30.5175 453.412 31.0952C453.814 31.6728 454.074 32.3381 454.193 33.0909H452.46C452.299 32.4375 451.986 31.8954 451.522 31.4645C451.058 31.0336 450.443 30.8182 449.676 30.8182C448.549 30.8182 447.661 31.3082 447.012 32.2884C446.368 33.2685 446.044 34.6439 446.039 36.4148H446.153C446.418 36.0123 446.733 35.669 447.098 35.3849C447.467 35.0961 447.874 34.8736 448.319 34.7173C448.764 34.5611 449.235 34.483 449.733 34.483C450.566 34.483 451.328 34.6913 452.02 35.108C452.711 35.5199 453.265 36.0904 453.681 36.8196C454.098 37.544 454.306 38.375 454.306 39.3125C454.306 40.2121 454.105 41.036 453.703 41.7841C453.3 42.5275 452.734 43.1193 452.005 43.5597C451.281 43.9953 450.429 44.2083 449.449 44.1989ZM449.449 42.6364C450.045 42.6364 450.58 42.4872 451.054 42.1889C451.532 41.8906 451.908 41.4905 452.183 40.9886C452.462 40.4867 452.602 39.928 452.602 39.3125C452.602 38.7112 452.467 38.1643 452.197 37.6719C451.932 37.1747 451.565 36.7794 451.096 36.4858C450.632 36.1922 450.102 36.0455 449.505 36.0455C449.056 36.0455 448.636 36.1354 448.248 36.3153C447.86 36.4905 447.519 36.732 447.225 37.0398C446.937 37.3475 446.709 37.7003 446.544 38.098C446.378 38.491 446.295 38.9053 446.295 39.3409C446.295 39.9186 446.43 40.4583 446.7 40.9602C446.975 41.4621 447.349 41.867 447.822 42.1747C448.3 42.4825 448.842 42.6364 449.449 42.6364Z" fill="#5B5B5B"/>
<rect y="89" width="632" height="10" rx="5" fill="#86BBD8"/>
<circle cx="443.5" cy="93.5" r="12.5" fill="#FF8600"/>
</svg>
